<svg width="2426" height="2426" viewBox="0 0 2426 2426" fill="#ff592b" xmlns="http://www.w3.org/2000/svg">
<circle cx="1213" cy="1213" r="1213" fill="#EFF6FF"/>
<path d="M412.624 550.436C601.258 501.826 817.093 576.31 979.587 711.338C1142.06 846.348 1250.94 1041.67 1225.96 1234.43C1007.44 1276.45 785.222 1201.41 627.049 1067.84C468.859 934.248 374.872 742.231 412.624 550.436Z" stroke="#FF592B" stroke-width="2"/>
<path d="M1212.49 1230.08C1401.13 1181.47 1616.96 1255.96 1779.46 1390.98C1941.93 1525.99 2050.81 1721.32 2025.83 1914.07C1807.31 1956.09 1585.09 1881.06 1426.92 1747.48C1268.73 1613.89 1174.74 1421.88 1212.49 1230.08Z" stroke="#FF592B" stroke-width="2"/>
<path d="M1931.33 453.29C1989.07 626.364 1914.52 827.975 1773.07 981.934C1631.64 1135.87 1423.54 1241.93 1214.53 1224.13C1163.09 1023.25 1238.06 815.717 1378.06 665.794C1518.08 515.856 1723.01 423.665 1931.33 453.29Z" stroke="#FF592B" stroke-width="2"/>
<path d="M1226.21 1212.75C1283.95 1385.82 1209.4 1587.43 1067.94 1741.39C926.511 1895.33 718.413 2001.39 509.404 1983.59C457.967 1782.71 532.938 1575.18 672.938 1425.25C812.953 1275.31 1017.88 1183.12 1226.21 1212.75Z" stroke="#FF592B" stroke-width="2"/>
</svg>
